# xmcd CD database file
#
# Track frame offsets:
#	150
#	22160
#	46045
#	68110
#
# Disc length: 1217 seconds
#
# Revision: 0
# Processed by: cddbd v1.5.1PL2 Copyright (c) Steve Scherf et al.
# Submitted via: CDex 1.51
#
DISCID=2d04bf04
DTITLE=ACO - Home Sweet Home
DYEAR=1996
DGENRE=Vocal
TTITLE0=Home Sweet Home
TTITLE1=虹
TTITLE2=Home Sweet Home<Backing Track>
TTITLE3=虹<Acoustic Guitar Version>
EXTD=YEAR: 1996
EXTT0=
EXTT1=
EXTT2=
EXTT3=
PLAYORDER=
